<svg width="73" height="64" viewBox="0 0 73 64" fill="none" xmlns="http://www.w3.org/2000/svg">
<rect width="73" height="64" fill="#E5E5E5"/>
<ellipse cx="30" cy="32" rx="30" ry="32" fill="#2B56AB"/>
<path d="M72.3546 34.0716C72.5516 33.8781 72.5545 33.5615 72.361 33.3645L69.2076 30.1541C69.0141 29.9571 68.6975 29.9543 68.5005 30.1478C68.3035 30.3413 68.3007 30.6579 68.4942 30.8549L71.2972 33.7085L68.4435 36.5115C68.2465 36.705 68.2437 37.0216 68.4372 37.2186C68.6307 37.4156 68.9473 37.4184 69.1443 37.2249L72.3546 34.0716ZM23.9913 33.7851L71.9998 34.2148L72.0087 33.2149L24.0002 32.7852L23.9913 33.7851Z" fill="black"/>
<path d="M27.4404 25H27.2031V21.8271H23.1162V25H22.8789V18.6016H23.1162V21.5898H27.2031V18.6016H27.4404V25ZM32.147 25C32.0884 24.7979 32.0591 24.5078 32.0591 24.1299C31.8716 24.4346 31.6152 24.6704 31.29 24.8374C30.9648 25.0044 30.5972 25.0879 30.187 25.0879C29.7476 25.0879 29.3931 24.9692 29.1235 24.7319C28.8569 24.4917 28.7236 24.1797 28.7236 23.7959C28.7236 23.3594 28.9199 23.0107 29.3125 22.75C29.708 22.4863 30.2324 22.3516 30.8857 22.3457H32.0591V21.6514C32.0591 21.2529 31.9331 20.9438 31.6812 20.7241C31.4321 20.5044 31.0747 20.3945 30.6089 20.3945C30.1753 20.3945 29.8135 20.5059 29.5234 20.7285C29.2334 20.9512 29.0884 21.2266 29.0884 21.5547L28.8511 21.5459C28.8511 21.1592 29.021 20.8311 29.3608 20.5615C29.7007 20.292 30.1167 20.1572 30.6089 20.1572C31.1216 20.1572 31.5288 20.2861 31.8306 20.5439C32.1323 20.7988 32.2876 21.1592 32.2964 21.625V23.897C32.2964 24.4185 32.3374 24.7729 32.4194 24.9604V25H32.147ZM30.187 24.855C30.6323 24.855 31.0146 24.7554 31.334 24.5562C31.6562 24.3569 31.8979 24.0771 32.0591 23.7168V22.5874H30.9604C30.2808 22.5874 29.7607 22.7222 29.4004 22.9917C29.1074 23.2114 28.9609 23.4854 28.9609 23.8135C28.9609 24.1035 29.0767 24.3496 29.3081 24.5518C29.5396 24.7539 29.8325 24.855 30.187 24.855ZM39.4023 25H39.1606V22.6753H36.2207V25H35.9834V20.2451H36.2207V22.438H39.1606V20.2451H39.4023V25ZM43.9858 25C43.9272 24.7979 43.8979 24.5078 43.8979 24.1299C43.7104 24.4346 43.4541 24.6704 43.1289 24.8374C42.8037 25.0044 42.436 25.0879 42.0259 25.0879C41.5864 25.0879 41.2319 24.9692 40.9624 24.7319C40.6958 24.4917 40.5625 24.1797 40.5625 23.7959C40.5625 23.3594 40.7588 23.0107 41.1514 22.75C41.5469 22.4863 42.0713 22.3516 42.7246 22.3457H43.8979V21.6514C43.8979 21.2529 43.772 20.9438 43.52 20.7241C43.271 20.5044 42.9136 20.3945 42.4478 20.3945C42.0142 20.3945 41.6523 20.5059 41.3623 20.7285C41.0723 20.9512 40.9272 21.2266 40.9272 21.5547L40.6899 21.5459C40.6899 21.1592 40.8599 20.8311 41.1997 20.5615C41.5396 20.292 41.9556 20.1572 42.4478 20.1572C42.9604 20.1572 43.3677 20.2861 43.6694 20.5439C43.9712 20.7988 44.1265 21.1592 44.1353 21.625V23.897C44.1353 24.4185 44.1763 24.7729 44.2583 24.9604V25H43.9858ZM42.0259 24.855C42.4712 24.855 42.8535 24.7554 43.1729 24.5562C43.4951 24.3569 43.7368 24.0771 43.8979 23.7168V22.5874H42.7993C42.1196 22.5874 41.5996 22.7222 41.2393 22.9917C40.9463 23.2114 40.7998 23.4854 40.7998 23.8135C40.7998 24.1035 40.9155 24.3496 41.147 24.5518C41.3784 24.7539 41.6714 24.855 42.0259 24.855ZM45.9062 20.2451V24.7627H48.3979V20.2451H48.6396V24.7627H51.0918V20.2451H51.3291V25H45.6689V20.2451H45.9062ZM56.4399 24.8506C56.8706 24.8506 57.2251 24.7363 57.5034 24.5078C57.7847 24.2793 57.9385 23.9629 57.9648 23.5586H58.2021C58.1787 24.0186 58.0015 24.3892 57.6704 24.6704C57.3394 24.9487 56.9292 25.0879 56.4399 25.0879C55.8452 25.0879 55.3721 24.8726 55.0205 24.4419C54.6719 24.0112 54.4976 23.4268 54.4976 22.6885V22.5303C54.4976 21.8096 54.6719 21.2339 55.0205 20.8032C55.3721 20.3726 55.8423 20.1572 56.4312 20.1572C56.9351 20.1572 57.3511 20.3081 57.6792 20.6099C58.0073 20.9116 58.1816 21.313 58.2021 21.814H57.9648C57.9443 21.3862 57.7935 21.0435 57.5122 20.7856C57.2339 20.5249 56.8735 20.3945 56.4312 20.3945C55.9009 20.3945 55.4849 20.5864 55.1831 20.9702C54.8843 21.3511 54.7349 21.8813 54.7349 22.561V22.7148C54.7349 23.3799 54.8857 23.9028 55.1875 24.2837C55.4922 24.6616 55.9097 24.8506 56.4399 24.8506ZM62.4692 25C62.4106 24.7979 62.3813 24.5078 62.3813 24.1299C62.1938 24.4346 61.9375 24.6704 61.6123 24.8374C61.2871 25.0044 60.9194 25.0879 60.5093 25.0879C60.0698 25.0879 59.7153 24.9692 59.4458 24.7319C59.1792 24.4917 59.0459 24.1797 59.0459 23.7959C59.0459 23.3594 59.2422 23.0107 59.6348 22.75C60.0303 22.4863 60.5547 22.3516 61.208 22.3457H62.3813V21.6514C62.3813 21.2529 62.2554 20.9438 62.0034 20.7241C61.7544 20.5044 61.397 20.3945 60.9312 20.3945C60.4976 20.3945 60.1357 20.5059 59.8457 20.7285C59.5557 20.9512 59.4106 21.2266 59.4106 21.5547L59.1733 21.5459C59.1733 21.1592 59.3433 20.8311 59.6831 20.5615C60.0229 20.292 60.439 20.1572 60.9312 20.1572C61.4438 20.1572 61.8511 20.2861 62.1528 20.5439C62.4546 20.7988 62.6099 21.1592 62.6187 21.625V23.897C62.6187 24.4185 62.6597 24.7729 62.7417 24.9604V25H62.4692ZM60.5093 24.855C60.9546 24.855 61.3369 24.7554 61.6562 24.5562C61.9785 24.3569 62.2202 24.0771 62.3813 23.7168V22.5874H61.2827C60.603 22.5874 60.083 22.7222 59.7227 22.9917C59.4297 23.2114 59.2832 23.4854 59.2832 23.8135C59.2832 24.1035 59.3989 24.3496 59.6304 24.5518C59.8618 24.7539 60.1548 24.855 60.5093 24.855ZM67.3296 20.2451H67.5713V25H67.3296V20.667L64.3896 25H64.1523V20.2451H64.3896V24.5781L67.3296 20.2451ZM67.0527 18.5488C67.0527 18.877 66.9414 19.1406 66.7188 19.3398C66.499 19.5391 66.2031 19.6387 65.8311 19.6387C65.4561 19.6387 65.1572 19.5391 64.9346 19.3398C64.7148 19.1406 64.605 18.877 64.605 18.5488H64.8423C64.8423 18.8154 64.9258 19.0234 65.0928 19.1729C65.2598 19.3193 65.5059 19.3926 65.8311 19.3926C66.1445 19.3926 66.3862 19.3179 66.5562 19.1685C66.729 19.0161 66.8154 18.8096 66.8154 18.5488H67.0527ZM72.3789 20.4868H70.5112V25H70.2739V20.4868H68.5029V20.2451H72.3789V20.4868Z" fill="black"/>
</svg>
