<svg width="275" height="37" viewBox="0 0 275 37" fill="none" xmlns="http://www.w3.org/2000/svg">
<path d="M27.4922 36H20.625L23.1562 21.375H9.91406L7.35938 36H0.492188L6.42188 1.875H13.2891L10.875 15.7031H24.1406L26.5312 1.875H33.3984L27.4922 36ZM47.8828 36C47.6797 35.3594 47.5938 34.5938 47.625 33.7031C45.7188 35.6094 43.5625 36.5312 41.1562 36.4688C38.9375 36.4375 37.0938 35.7188 35.625 34.3125C34.1719 32.8906 33.4922 31.1406 33.5859 29.0625C33.6953 26.2969 34.8516 24.1797 37.0547 22.7109C39.2734 21.2266 42.2422 20.4844 45.9609 20.4844L49.0547 20.5312L49.3828 19.0078C49.4766 18.4922 49.5 18 49.4531 17.5312C49.375 16.7969 49.0938 16.2266 48.6094 15.8203C48.1406 15.3984 47.5156 15.1797 46.7344 15.1641C45.7031 15.1328 44.8281 15.3906 44.1094 15.9375C43.3906 16.4688 42.9297 17.2422 42.7266 18.2578L36.0938 18.2812C36.2031 15.8594 37.3125 13.8984 39.4219 12.3984C41.5469 10.8828 44.1641 10.1406 47.2734 10.1719C50.1484 10.2344 52.3984 11.0938 54.0234 12.75C55.6484 14.3906 56.3281 16.5078 56.0625 19.1016L54.1172 31.2422L54 32.7422C53.9688 33.8516 54.1016 34.7891 54.3984 35.5547L54.375 36H47.8828ZM42.7969 31.3359C44.7031 31.3984 46.3672 30.5703 47.7891 28.8516L48.6094 24.4688L46.3125 24.4453C43.875 24.5078 42.1172 25.25 41.0391 26.6719C40.6484 27.1875 40.4062 27.8203 40.3125 28.5703C40.1875 29.4141 40.3594 30.0859 40.8281 30.5859C41.3125 31.0703 41.9688 31.3203 42.7969 31.3359ZM91.6641 36H85.0078L86.7188 26.25H78.6094L76.8984 36H70.2891L74.6953 10.6406H81.3047L79.5234 20.8125H87.6562L89.4141 10.6406H96.0703L91.6641 36ZM111.633 36C111.43 35.3594 111.344 34.5938 111.375 33.7031C109.469 35.6094 107.312 36.5312 104.906 36.4688C102.688 36.4375 100.844 35.7188 99.375 34.3125C97.9219 32.8906 97.2422 31.1406 97.3359 29.0625C97.4453 26.2969 98.6016 24.1797 100.805 22.7109C103.023 21.2266 105.992 20.4844 109.711 20.4844L112.805 20.5312L113.133 19.0078C113.227 18.4922 113.25 18 113.203 17.5312C113.125 16.7969 112.844 16.2266 112.359 15.8203C111.891 15.3984 111.266 15.1797 110.484 15.1641C109.453 15.1328 108.578 15.3906 107.859 15.9375C107.141 16.4688 106.68 17.2422 106.477 18.2578L99.8438 18.2812C99.9531 15.8594 101.062 13.8984 103.172 12.3984C105.297 10.8828 107.914 10.1406 111.023 10.1719C113.898 10.2344 116.148 11.0938 117.773 12.75C119.398 14.3906 120.078 16.5078 119.812 19.1016L117.867 31.2422L117.75 32.7422C117.719 33.8516 117.852 34.7891 118.148 35.5547L118.125 36H111.633ZM106.547 31.3359C108.453 31.3984 110.117 30.5703 111.539 28.8516L112.359 24.4688L110.062 24.4453C107.625 24.5078 105.867 25.25 104.789 26.6719C104.398 27.1875 104.156 27.8203 104.062 28.5703C103.938 29.4141 104.109 30.0859 104.578 30.5859C105.062 31.0703 105.719 31.3203 106.547 31.3359ZM133.195 10.6406L129.75 30.5391H136.453L139.898 10.6406H146.531L143.086 30.5391H149.789L153.234 10.6406H159.867L155.461 36H122.18L126.586 10.6406H133.195ZM183.914 31.0312C185.133 31.0625 186.148 30.7344 186.961 30.0469C187.773 29.3438 188.305 28.4141 188.555 27.2578L194.766 27.2344C194.656 29.0156 194.094 30.6172 193.078 32.0391C192.078 33.4609 190.734 34.5703 189.047 35.3672C187.375 36.1641 185.609 36.5391 183.75 36.4922C180.672 36.4453 178.234 35.3828 176.438 33.3047C174.641 31.2266 173.773 28.4609 173.836 25.0078L173.906 23.7188L173.93 23.4609C174.352 19.3359 175.742 16.0703 178.102 13.6641C180.461 11.2422 183.375 10.0781 186.844 10.1719C189.703 10.2344 191.969 11.1719 193.641 12.9844C195.328 14.7812 196.156 17.1562 196.125 20.1094H189.961C189.961 18.75 189.664 17.6797 189.07 16.8984C188.477 16.1172 187.586 15.6953 186.398 15.6328C183.242 15.5391 181.328 17.8438 180.656 22.5469C180.422 24.25 180.336 25.6875 180.398 26.8594C180.555 29.5938 181.727 30.9844 183.914 31.0312ZM211.992 36C211.789 35.3594 211.703 34.5938 211.734 33.7031C209.828 35.6094 207.672 36.5312 205.266 36.4688C203.047 36.4375 201.203 35.7188 199.734 34.3125C198.281 32.8906 197.602 31.1406 197.695 29.0625C197.805 26.2969 198.961 24.1797 201.164 22.7109C203.383 21.2266 206.352 20.4844 210.07 20.4844L213.164 20.5312L213.492 19.0078C213.586 18.4922 213.609 18 213.562 17.5312C213.484 16.7969 213.203 16.2266 212.719 15.8203C212.25 15.3984 211.625 15.1797 210.844 15.1641C209.812 15.1328 208.938 15.3906 208.219 15.9375C207.5 16.4688 207.039 17.2422 206.836 18.2578L200.203 18.2812C200.312 15.8594 201.422 13.8984 203.531 12.3984C205.656 10.8828 208.273 10.1406 211.383 10.1719C214.258 10.2344 216.508 11.0938 218.133 12.75C219.758 14.3906 220.438 16.5078 220.172 19.1016L218.227 31.2422L218.109 32.7422C218.078 33.8516 218.211 34.7891 218.508 35.5547L218.484 36H211.992ZM206.906 31.3359C208.812 31.3984 210.477 30.5703 211.898 28.8516L212.719 24.4688L210.422 24.4453C207.984 24.5078 206.227 25.25 205.148 26.6719C204.758 27.1875 204.516 27.8203 204.422 28.5703C204.297 29.4141 204.469 30.0859 204.938 30.5859C205.422 31.0703 206.078 31.3203 206.906 31.3359ZM241.547 10.6406H248.367L243.984 36H237.352L240 20.8125L229.383 36H222.539L226.945 10.6406H233.578L230.93 25.8047L241.547 10.6406ZM247.148 0.304688C247.055 2.47656 246.234 4.20312 244.688 5.48438C243.141 6.76563 241.211 7.375 238.898 7.3125C236.742 7.28125 234.977 6.64844 233.602 5.41406C232.242 4.16406 231.547 2.46094 231.516 0.304688L236.156 0.351562C236.094 2.38281 236.992 3.41406 238.852 3.44531C239.867 3.47656 240.68 3.21094 241.289 2.64844C241.898 2.07031 242.289 1.30469 242.461 0.351562L247.148 0.304688ZM273.117 16.0781H265.242L261.773 36H255.141L258.609 16.0781H250.828L251.789 10.6406H274.078L273.117 16.0781Z" fill="#B9A3F6"/>
</svg>
